# xmcd
#
# Track frame offsets:
# 150
# 16332
# 38745
# 51482
# 65632
# 81950
# 97955
# 117722
# 134097
#
# Disc length: 2024 seconds
#
#
# Revision: 0
# Processed by: cddbd v1.5.1PL0 Copyright (c) Steve Scherf et al.
# Submitted via: FreeRIP 2.92 
#
DISCID=8207e609
DTITLE=Kandi Johnston - Chance On Change
DYEAR=2001
DGENRE=Country
TTITLE0=Life Before I Loved You
TTITLE1=How Much I Love You
TTITLE2=Dreams Come True
TTITLE3=Chance On Change
TTITLE4=I'm Here
TTITLE5=Back To You
TTITLE6=All I Know
TTITLE7=I Wish I Knew
TTITLE8=Paper Memories
EXTD=
EXTT0=
EXTT1=
EXTT2=
EXTT3=
EXTT4=
EXTT5=
EXTT6=
EXTT7=
EXTT8=
PLAYORDER=
